<svg width="32" height="32" viewBox="0 0 32 32" fill="none" xmlns="http://www.w3.org/2000/svg">
  <!-- 宠物头像 - 可爱的猫咪风格 -->
  <circle cx="16" cy="16" r="15" fill="#FFF" stroke="#E2E8F0" stroke-width="2"/>
  
  <!-- 猫咪脸部 -->
  <ellipse cx="16" cy="18" rx="10" ry="8" fill="#F7FAFC"/>
  
  <!-- 猫咪耳朵 -->
  <path d="M8 12 L12 6 L16 12 Z" fill="#E2E8F0"/>
  <path d="M16 12 L20 6 L24 12 Z" fill="#E2E8F0"/>
  <path d="M9.5 11 L12 7.5 L14.5 11 Z" fill="#FED7D7"/>
  <path d="M17.5 11 L20 7.5 L22.5 11 Z" fill="#FED7D7"/>
  
  <!-- 猫咪眼睛 -->
  <ellipse cx="12" cy="16" rx="2" ry="2.5" fill="#2D3748"/>
  <ellipse cx="20" cy="16" rx="2" ry="2.5" fill="#2D3748"/>
  <ellipse cx="12" cy="15.5" rx="0.8" ry="1" fill="#FFF"/>
  <ellipse cx="20" cy="15.5" rx="0.8" ry="1" fill="#FFF"/>
  
  <!-- 猫咪鼻子 -->
  <path d="M16 19 L14.5 20.5 L17.5 20.5 Z" fill="#FED7D7"/>
  
  <!-- 猫咪嘴巴 -->
  <path d="M16 20.5 Q13 22 11 21" stroke="#4A5568" stroke-width="1.5" fill="none" stroke-linecap="round"/>
  <path d="M16 20.5 Q19 22 21 21" stroke="#4A5568" stroke-width="1.5" fill="none" stroke-linecap="round"/>
  
  <!-- 猫咪胡须 -->
  <line x1="6" y1="17" x2="10" y2="17" stroke="#4A5568" stroke-width="1" stroke-linecap="round"/>
  <line x1="6" y1="19" x2="10" y2="18.5" stroke="#4A5568" stroke-width="1" stroke-linecap="round"/>
  <line x1="22" y1="17" x2="26" y2="17" stroke="#4A5568" stroke-width="1" stroke-linecap="round"/>
  <line x1="22" y1="18.5" x2="26" y2="19" stroke="#4A5568" stroke-width="1" stroke-linecap="round"/>
</svg>